<svg width="154" height="172" viewBox="0 0 154 172" fill="none" xmlns="http://www.w3.org/2000/svg">
<g clip-path="url(#clip0_6_38)">
<path d="M33.0859 114.219L37.2969 126.984H43.3125L47.5234 114.219H33.0859Z" fill="#466089"/>
<path d="M14.4375 114.219L18.6484 126.984H24.6641L28.875 114.219H14.4375Z" fill="#466089"/>
<path d="M54.7422 114.219L58.9531 126.984H64.9688L69.1797 114.219H54.7422Z" fill="#466089"/>
<path d="M109.484 114.219L113.695 126.984H119.711L123.922 114.219H109.484Z" fill="#466089"/>
<path d="M131.141 114.219L135.352 126.984H141.367L145.578 114.219H131.141Z" fill="#466089"/>
<path d="M48.4258 121.273C30.4457 121.273 18.5946 118.892 11.5211 116.718C6.48483 115.17 3.00781 110.036 3.00781 104.202C3.00781 98.4055 6.44304 93.311 11.4318 91.7136C18.6205 89.4118 30.5606 85.5693 47.8242 79.9531C72.26 72.0042 88.5028 54.8593 92.9928 47.9702C94.2002 46.1178 96.1222 45.0156 98.1738 45.0156H100.708C104.241 45.0156 107.105 48.2141 107.105 52.16C107.105 54.2364 107.913 56.2097 109.32 57.5669L111.92 60.0754C113.082 61.1961 114.566 61.8128 116.101 61.8128H131.842C133.662 61.8128 135.364 60.8097 136.392 59.1321L140.928 51.728C141.956 50.0503 143.659 49.0472 145.479 49.0472C148.524 49.0469 150.992 51.8039 150.992 55.2049V104.477C150.992 113.753 144.259 121.273 135.953 121.273C125.426 121.273 117.605 116.906 99.5586 116.906C81.8125 116.906 67.6758 121.273 48.4258 121.273Z" fill="#6E83B7"/>
<path d="M11.5211 108.992C18.5946 111.166 30.4457 113.547 48.4258 113.547C67.6758 113.547 81.8125 109.18 99.5586 109.18C117.605 109.18 125.426 113.547 135.953 113.547C144.259 113.547 150.992 106.027 150.992 96.75V104.477C150.992 113.753 144.259 121.273 135.953 121.273C125.426 121.273 117.605 116.906 99.5586 116.906C81.8125 116.906 67.6758 121.273 48.4258 121.273C30.4457 121.273 18.5946 118.892 11.5211 116.718C6.48483 115.17 3.00781 110.036 3.00781 104.202C3.00781 102.865 3.19249 101.568 3.53448 100.34C4.68527 104.473 7.63893 107.798 11.5211 108.992Z" fill="#EDEFF1"/>
<path d="M97.4531 92.0471C112.308 92.0471 135.947 92.0471 150.992 92.0471V101.117H73.0899C45.994 101.117 27.4268 92.6091 20.482 88.8073C27.0697 86.6858 35.6038 83.9271 46.2274 80.4727C54.06 84.5338 71.9908 92.0471 97.4531 92.0471Z" fill="#80D6FB"/>
<path d="M74.2298 66.3541L84.3 77.6013L88.1289 73.3248L78.7566 62.8604C77.3369 64.0227 75.827 65.1918 74.2298 66.3541Z" fill="#466089"/>
<path d="M82.2515 59.8574L93.585 72.5156L97.4109 68.2424L86.3692 55.9102C85.133 57.1733 83.7584 58.5002 82.2515 59.8574Z" fill="#466089"/>
<path d="M65.489 72.0416L75.5381 83.2652L79.364 78.9921L70.4128 68.9946C68.8397 70.036 67.2004 71.0539 65.489 72.0416Z" fill="#466089"/>
<g clip-path="url(#clip1_6_38)">
<path d="M29.1599 18.4497C14.4889 18.4497 2.58203 30.1398 2.58203 44.5437C2.58203 58.9476 14.4889 70.6377 29.1599 70.6377C43.8309 70.6377 55.7378 58.9476 55.7378 44.5437C55.7378 30.1398 43.8309 18.4497 29.1599 18.4497ZM31.8177 27.0607L35.4057 24.5818C40.2429 26.0431 44.3625 29.1743 47.0469 33.2972L46.0103 36.7938L42.4223 37.9941L31.8177 30.7139V27.0607ZM22.9141 24.5818L26.5021 27.0607V30.7139L15.8976 37.9941L12.3095 36.7938L11.273 33.2972C13.9574 29.2004 18.0769 26.0692 22.9141 24.5818ZM16.0836 57.8778L13.0537 58.1387C9.8378 54.4855 7.89761 49.7364 7.89761 44.5437C7.89761 44.2306 7.92419 43.9436 7.95077 43.6304L10.6086 41.7256L14.2763 42.9781L18.1567 54.3029L16.0836 57.8778ZM35.8044 64.3491C33.7048 65.0275 31.4722 65.4189 29.1599 65.4189C26.8477 65.4189 24.6151 65.0275 22.5155 64.3491L20.6816 60.4611L22.3826 57.5907H35.9639L37.6649 60.4872L35.8044 64.3491ZM35.1931 52.3719H23.1267L19.5387 41.8821L29.1599 35.2543L38.8077 41.8821L35.1931 52.3719ZM45.2661 58.1387L42.2363 57.8778L40.1366 54.3029L44.017 42.9781L47.7113 41.7517L50.3691 43.6565C50.3957 43.9436 50.4223 44.2306 50.4223 44.5437C50.4223 49.7364 48.4821 54.4855 45.2661 58.1387Z" fill="black"/>
</g>
</g>
<defs>
<clipPath id="clip0_6_38">
<rect width="154" height="172" fill="white" transform="matrix(-1 0 0 1 154 0)"/>
</clipPath>
<clipPath id="clip1_6_38">
<rect width="63.787" height="62.6256" fill="white" transform="translate(-2.73364 13.231)"/>
</clipPath>
</defs>
</svg>
