<svg width="129" height="120" viewBox="0 0 129 120" fill="none" xmlns="http://www.w3.org/2000/svg">
<g clip-path="url(#clip0_803_2)">
<path d="M104.92 12.45C92.3424 0.750032 69.3374 3.10003 53.5886 17.75C44.9886 25.75 40.0436 37.1 39.9361 45.05C39.8286 52.95 41.3336 64.5 32.6799 72.55L9.88989 93.75L17.5224 100.85L40.3124 79.65C48.9661 71.6 61.3824 73 69.8749 72.9C78.3674 72.8 90.6224 68.2 99.2224 60.2C114.917 45.55 117.497 24.15 104.92 12.45ZM55.4699 58.4C47.2461 50.75 49.8261 35.35 61.1674 24.8C72.5086 14.25 89.0099 11.85 97.2874 19.5C105.511 27.15 102.931 42.55 91.5899 53.1C80.2486 63.65 63.7474 66.05 55.4699 58.4Z" fill="black"/>
<path d="M96.75 85C99.5988 85 102.34 86.05 104.329 87.95C108.521 91.85 108.521 98.2 104.329 102.1C102.34 103.95 99.5988 105 96.75 105C93.9013 105 91.16 103.95 89.1713 102.05C84.9788 98.15 84.9788 91.8 89.1713 87.9C91.16 86.05 93.9013 85 96.75 85ZM96.75 75C91.2675 75 85.7313 76.95 81.5388 80.85C73.1537 88.65 73.1537 101.3 81.5388 109.15C85.7313 113.05 91.2675 115 96.75 115C102.233 115 107.769 113.05 111.961 109.15C120.346 101.35 120.346 88.7 111.961 80.85C107.769 76.95 102.233 75 96.75 75Z" fill="black"/>
<path d="M53.2728 55.6969C45.9821 45.2559 48.1647 30.1425 58.1153 22.1641L68.025 14.2184C77.7157 6.44844 91.1664 8.36953 98.2665 18.5377V18.5377C105.933 29.5166 102.972 45.3659 92.3841 53.5669C89.8746 55.5108 87.5017 57.4141 85.1777 59.3413C75.0778 67.7165 60.7625 66.4228 53.2728 55.6969V55.6969Z" fill="#D82121"/>
</g>
<defs>
<clipPath id="clip0_803_2">
<rect width="129" height="120" fill="white"/>
</clipPath>
</defs>
</svg>
